<svg fill="none" height="512" viewBox="0 0 24 24" width="512" xmlns="http://www.w3.org/2000/svg"><path clip-rule="evenodd" d="m6.70711 18.7071c-.39052.3905-1.02369.3905-1.41421 0-.39053-.3905-.39053-1.0237-.00001-1.4142l5.29281-5.2929-5.29281-5.2929c-.39052-.39052-.39052-1.02369.00001-1.41421.39052-.39052 1.02369-.39052 1.41421.00001l5.99989 6c.3906.3905.3906 1.0237 0 1.4142zm5.99999 0c-.3905.3905-1.0237.3905-1.4142 0s-.3905-1.0237 0-1.4142l5.2928-5.2929-5.2928-5.2929c-.3905-.39052-.3905-1.02369 0-1.41421s1.0237-.39052 1.4142.00001l5.9999 6c.3906.3905.3906 1.0237 0 1.4142z" fill="rgb(0,0,0)" fill-rule="evenodd"/></svg>