<svg xmlns="http://www.w3.org/2000/svg" version="1.1" xmlns:xlink="http://www.w3.org/1999/xlink" xmlns:svgjs="http://svgjs.com/svgjs" width="512" height="512" x="0" y="0" viewBox="0 0 55.751 55.751" style="enable-background:new 0 0 512 512" xml:space="preserve" class=""><g><path d="M31.836 43.006c.282-.281.518-.59.725-.912L54.17 20.485a5.403 5.403 0 0 0 0-7.638 5.403 5.403 0 0 0-7.638 0l-18.608 18.61L9.217 12.753A5.4 5.4 0 0 0 0 16.571a5.363 5.363 0 0 0 1.582 3.816l21.703 21.706c.207.323.445.631.729.913a5.367 5.367 0 0 0 3.91 1.572 5.37 5.37 0 0 0 3.912-1.572z" fill="#7d7d7d" opacity="1" data-original="#000000"></path></g></svg>