<svg xmlns="http://www.w3.org/2000/svg" version="1.1" xmlns:xlink="http://www.w3.org/1999/xlink" xmlns:svgjs="http://svgjs.com/svgjs" width="512" height="512" x="0" y="0" viewBox="0 0 55.752 55.752" style="enable-background:new 0 0 512 512" xml:space="preserve" class=""><g><path d="M31.837 12.745c.282.281.52.589.727.912l21.607 21.609a5.4 5.4 0 0 1-7.638 7.637l-18.607-18.61L9.218 42.999a5.403 5.403 0 0 1-7.638 0C.527 41.942 0 40.561 0 39.18s.527-2.763 1.582-3.816l21.704-21.705c.208-.323.446-.631.728-.913a5.37 5.37 0 0 1 3.912-1.572 5.358 5.358 0 0 1 3.911 1.571z" fill="#7d7d7d" opacity="1" data-original="#000000" class=""></path></g></svg>