<?xml version="1.0" encoding="iso-8859-1"?>
<!-- Generator: Adobe Illustrator 19.0.0, SVG Export Plug-In . SVG Version: 6.00 Build 0)  -->
<svg version="1.1" id="Capa_1" xmlns="http://www.w3.org/2000/svg" xmlns:xlink="http://www.w3.org/1999/xlink" x="0px" y="0px"
	 viewBox="0 0 55.752 55.752" style="enable-background:new 0 0 55.752 55.752;" xml:space="preserve">
<g>
	<path d="M31.837,12.745c0.282,0.281,0.52,0.589,0.727,0.912l21.607,21.609c2.108,2.109,2.109,5.527,0,7.637s-5.527,2.109-7.638,0
		l-18.607-18.61L9.218,42.999c-2.108,2.107-5.528,2.109-7.638,0C0.527,41.942,0,40.561,0,39.18s0.527-2.763,1.582-3.816
		l21.704-21.705c0.208-0.323,0.446-0.631,0.728-0.913c1.078-1.078,2.497-1.597,3.912-1.572
		C29.339,11.147,30.759,11.666,31.837,12.745z"/>
</g>
<g>
</g>
<g>
</g>
<g>
</g>
<g>
</g>
<g>
</g>
<g>
</g>
<g>
</g>
<g>
</g>
<g>
</g>
<g>
</g>
<g>
</g>
<g>
</g>
<g>
</g>
<g>
</g>
<g>
</g>
</svg>
