<svg id="Capa_1" enable-background="new 0 0 510 510" height="512" viewBox="0 0 510 510" width="512" xmlns="http://www.w3.org/2000/svg" xmlns:xlink="http://www.w3.org/1999/xlink"><linearGradient id="lg1"><stop offset="0" stop-color="#b5adb6"/><stop offset=".5106" stop-color="#918291"/><stop offset="1" stop-color="#554e56"/></linearGradient><linearGradient id="SVGID_1_" gradientUnits="userSpaceOnUse" x1="101" x2="197.876" xlink:href="#lg1" y1="357.318" y2="357.318"/><linearGradient id="SVGID_2_" gradientUnits="userSpaceOnUse" x1="67.598" x2="179.229" xlink:href="#lg1" y1="342.614" y2="342.614"/><linearGradient id="lg2"><stop offset="0" stop-color="#fff3be"/><stop offset=".5725" stop-color="#ffd15b"/><stop offset="1" stop-color="#eca026"/></linearGradient><linearGradient id="SVGID_3_" gradientUnits="userSpaceOnUse" x1="102.143" x2="547.285" xlink:href="#lg2" y1="199.241" y2="199.241"/><linearGradient id="SVGID_4_" gradientUnits="userSpaceOnUse" x1="22.311" x2="527.614" xlink:href="#lg2" y1="199.241" y2="199.241"/><linearGradient id="SVGID_5_" gradientUnits="userSpaceOnUse" x1="179.037" x2="420.599" y1="199.241" y2="199.241"><stop offset="0" stop-color="#fff"/><stop offset="1" stop-color="#f9f3f1"/></linearGradient><linearGradient id="SVGID_6_" gradientUnits="userSpaceOnUse" x1="304.297" x2="657.942" y1="199.241" y2="199.241"><stop offset="0" stop-color="#f8f6f7"/><stop offset="1" stop-color="#d1ceeb"/></linearGradient><linearGradient id="lg3"><stop offset="0" stop-color="#fe93bb"/><stop offset=".5595" stop-color="#925cb4"/><stop offset="1" stop-color="#5b3374"/></linearGradient><linearGradient id="SVGID_7_" gradientUnits="userSpaceOnUse" x1="-11.423" x2="217.452" xlink:href="#lg3" y1="426.752" y2="426.752"/><linearGradient id="SVGID_8_" gradientUnits="userSpaceOnUse" x1="-62.333" x2="217.785" xlink:href="#lg3" y1="426.751" y2="426.751"/><g><path d="m145.919 401.403-37.322-37.322 50.847-50.847 37.322 37.322z" fill="url(#SVGID_1_)"/><path d="m138.006 334.672c10.737 14.028 23.294 26.585 37.322 37.322l21.438-21.439-37.322-37.322z" fill="url(#SVGID_2_)"/><g><circle cx="310.759" cy="199.241" fill="url(#SVGID_3_)" r="199.241"/><path d="m310.759 0c-6.754 0-13.429.34-20.01.997 100.641 10.036 179.231 94.96 179.231 198.244s-78.59 188.207-179.231 198.244c6.581.656 13.256.997 20.01.997 110.038 0 199.241-89.204 199.241-199.241s-89.203-199.241-199.241-199.241z" fill="url(#SVGID_4_)"/><circle cx="310.759" cy="199.241" fill="url(#SVGID_5_)" r="140.726"/><path d="m310.759 58.515c-6.794 0-13.473.492-20.01 1.423 68.242 9.716 120.716 68.377 120.716 139.304s-52.474 129.588-120.716 139.304c6.537.931 13.216 1.423 20.01 1.423 77.721 0 140.726-63.005 140.726-140.726s-63.005-140.728-140.726-140.728z" fill="url(#SVGID_6_)"/></g><path d="m15.259 494.741c-22.655-22.655-19.683-60.197 6.253-79.006l95.541-69.284c6.161-4.467 14.654-3.795 20.035 1.586l24.874 24.874c5.381 5.381 6.053 13.875 1.586 20.035l-69.284 95.541c-18.808 25.937-56.35 28.909-79.005 6.254z" fill="url(#SVGID_7_)"/><path d="m161.962 372.912-24.874-24.874c-5.381-5.381-13.875-6.053-20.035-1.586l-12.742 9.24 17.22 17.22c5.381 5.381 6.053 13.875 1.586 20.035l-69.284 95.541c-5.848 8.064-13.508 13.905-21.967 17.449 21.54 9.068 47.694 2.829 62.399-17.449l69.284-95.541c4.467-6.161 3.794-14.654-1.587-20.035z" fill="url(#SVGID_8_)"/></g></svg>